<svg height="3662" width="720" xmlns="http://www.w3.org/2000/svg">
<rect height="3662" fill="#555" width="720"></rect>
<text fill="#7f7" font-family="Courier New" font-size="12" xml:space="preserve">
<tspan x="10" y="26">212 megabytes installed</tspan>
<tspan x="10" y="42"></tspan>
<tspan x="10" y="58">node_modules</tspan>
<tspan x="10" y="74">└─┬ ember-intl@2.27.0 </tspan>
<tspan x="10" y="90">  ├─┬ broccoli-caching-writer@3.0.3 </tspan>
<tspan x="10" y="106">  │ ├─┬ broccoli-kitchen-sink-helpers@0.3.1 </tspan>
<tspan x="10" y="122">  │ │ └─┬ glob@5.0.15 </tspan>
<tspan x="10" y="138">  │ │   ├─┬ inflight@1.0.6 </tspan>
<tspan x="10" y="154">  │ │   │ └── wrappy@1.0.2 </tspan>
<tspan x="10" y="170">  │ │   ├── inherits@2.0.3 </tspan>
<tspan x="10" y="186">  │ │   ├── once@1.4.0 </tspan>
<tspan x="10" y="202">  │ │   └── path-is-absolute@1.0.1 </tspan>
<tspan x="10" y="218">  │ ├─┬ broccoli-plugin@1.3.0 </tspan>
<tspan x="10" y="234">  │ │ ├── promise-map-series@0.2.3 </tspan>
<tspan x="10" y="250">  │ │ └─┬ quick-temp@0.1.8 </tspan>
<tspan x="10" y="266">  │ │   ├── mktemp@0.4.0 </tspan>
<tspan x="10" y="282">  │ │   └─┬ underscore.string@3.3.4 </tspan>
<tspan x="10" y="298">  │ │     └── util-deprecate@1.0.2 </tspan>
<tspan x="10" y="314">  │ ├─┬ debug@2.6.4 </tspan>
<tspan x="10" y="330">  │ │ └── ms@0.7.3 </tspan>
<tspan x="10" y="346">  │ ├─┬ rimraf@2.6.1 </tspan>
<tspan x="10" y="362">  │ │ └─┬ glob@7.1.1 </tspan>
<tspan x="10" y="378">  │ │   └── fs.realpath@1.0.0 </tspan>
<tspan x="10" y="394">  │ └── rsvp@3.5.0 </tspan>
<tspan x="10" y="410">  ├─┬ broccoli-cldr-data@1.1.0 </tspan>
<tspan x="10" y="426">  │ ├─┬ formatjs-extract-cldr-data@2.0.0 </tspan>
<tspan x="10" y="442">  │ │ ├── cldr-dates-full@28.0.0 </tspan>
<tspan x="10" y="458">  │ │ ├── cldr-numbers-full@28.0.0 </tspan>
<tspan x="10" y="474">  │ │ ├── make-plural@2.1.3 </tspan>
<tspan x="10" y="490">  │ │ ├─┬ object.assign@4.0.4 </tspan>
<tspan x="10" y="506">  │ │ │ ├─┬ define-properties@1.1.2 </tspan>
<tspan x="10" y="522">  │ │ │ │ └── foreach@2.0.5 </tspan>
<tspan x="10" y="538">  │ │ │ ├── function-bind@1.1.0 </tspan>
<tspan x="10" y="554">  │ │ │ └── object-keys@1.0.11 </tspan>
<tspan x="10" y="570">  │ │ └─┬ uglify-js@2.8.22 </tspan>
<tspan x="10" y="586">  │ │   ├── source-map@0.5.6 </tspan>
<tspan x="10" y="602">  │ │   ├── uglify-to-browserify@1.0.2 </tspan>
<tspan x="10" y="618">  │ │   └─┬ yargs@3.10.0 </tspan>
<tspan x="10" y="634">  │ │     ├── camelcase@1.2.1 </tspan>
<tspan x="10" y="650">  │ │     ├─┬ cliui@2.1.0 </tspan>
<tspan x="10" y="666">  │ │     │ ├─┬ center-align@0.1.3 </tspan>
<tspan x="10" y="682">  │ │     │ │ ├─┬ align-text@0.1.4 </tspan>
<tspan x="10" y="698">  │ │     │ │ │ ├─┬ kind-of@3.1.0 </tspan>
<tspan x="10" y="714">  │ │     │ │ │ │ └── is-buffer@1.1.5 </tspan>
<tspan x="10" y="730">  │ │     │ │ │ ├── longest@1.0.1 </tspan>
<tspan x="10" y="746">  │ │     │ │ │ └── repeat-string@1.6.1 </tspan>
<tspan x="10" y="762">  │ │     │ │ └── lazy-cache@1.0.4 </tspan>
<tspan x="10" y="778">  │ │     │ ├── right-align@0.1.3 </tspan>
<tspan x="10" y="794">  │ │     │ └── wordwrap@0.0.2 </tspan>
<tspan x="10" y="810">  │ │     ├── decamelize@1.2.0 </tspan>
<tspan x="10" y="826">  │ │     └── window-size@0.1.0 </tspan>
<tspan x="10" y="842">  │ └── serialize-javascript@1.3.0 </tspan>
<tspan x="10" y="858">  ├─┬ broccoli-funnel@1.2.0 </tspan>
<tspan x="10" y="874">  │ ├── array-equal@1.0.0 </tspan>
<tspan x="10" y="890">  │ ├── blank-object@1.0.2 </tspan>
<tspan x="10" y="906">  │ ├── fast-ordered-set@1.0.3 </tspan>
<tspan x="10" y="922">  │ ├─┬ fs-tree-diff@0.5.6 </tspan>
<tspan x="10" y="938">  │ │ ├── heimdalljs-logger@0.1.9 </tspan>
<tspan x="10" y="954">  │ │ └── object-assign@4.1.1 </tspan>
<tspan x="10" y="970">  │ ├─┬ heimdalljs@0.2.4 </tspan>
<tspan x="10" y="986">  │ │ └── rsvp@3.2.1 </tspan>
<tspan x="10" y="1002">  │ ├─┬ minimatch@3.0.3 </tspan>
<tspan x="10" y="1018">  │ │ └─┬ brace-expansion@1.1.7 </tspan>
<tspan x="10" y="1034">  │ │   ├── balanced-match@0.4.2 </tspan>
<tspan x="10" y="1050">  │ │   └── concat-map@0.0.1 </tspan>
<tspan x="10" y="1066">  │ ├── path-posix@1.0.0 </tspan>
<tspan x="10" y="1082">  │ └── symlink-or-copy@1.1.8 </tspan>
<tspan x="10" y="1098">  ├─┬ broccoli-merge-trees@2.0.0 </tspan>
<tspan x="10" y="1114">  │ └─┬ merge-trees@1.0.1 </tspan>
<tspan x="10" y="1130">  │   └─┬ can-symlink@1.0.0 </tspan>
<tspan x="10" y="1146">  │     └─┬ tmp@0.0.28 </tspan>
<tspan x="10" y="1162">  │       └── os-tmpdir@1.0.2 </tspan>
<tspan x="10" y="1178">  ├── broccoli-source@1.1.0 </tspan>
<tspan x="10" y="1194">  ├─┬ broccoli-stew@1.4.2 </tspan>
<tspan x="10" y="1210">  │ ├── broccoli-merge-trees@1.2.4 </tspan>
<tspan x="10" y="1226">  │ ├─┬ broccoli-persistent-filter@1.2.13 </tspan>
<tspan x="10" y="1242">  │ │ ├─┬ async-disk-cache@1.3.1 </tspan>
<tspan x="10" y="1258">  │ │ │ └─┬ istextorbinary@2.1.0 </tspan>
<tspan x="10" y="1274">  │ │ │   ├── binaryextensions@2.0.0 </tspan>
<tspan x="10" y="1290">  │ │ │   ├── editions@1.3.3 </tspan>
<tspan x="10" y="1306">  │ │ │   └── textextensions@2.0.1 </tspan>
<tspan x="10" y="1322">  │ │ ├── hash-for-dep@1.1.2 </tspan>
<tspan x="10" y="1338">  │ │ └─┬ md5-hex@1.3.0 </tspan>
<tspan x="10" y="1354">  │ │   └── md5-o-matic@0.1.1 </tspan>
<tspan x="10" y="1370">  │ ├── ensure-posix-path@1.0.2 </tspan>
<tspan x="10" y="1386">  │ ├─┬ fs-extra@2.1.2 </tspan>
<tspan x="10" y="1402">  │ │ ├── graceful-fs@4.1.11 </tspan>
<tspan x="10" y="1418">  │ │ └── jsonfile@2.4.0 </tspan>
<tspan x="10" y="1434">  │ ├─┬ resolve@1.3.3 </tspan>
<tspan x="10" y="1450">  │ │ └── path-parse@1.0.5 </tspan>
<tspan x="10" y="1466">  │ └─┬ sanitize-filename@1.6.1 </tspan>
<tspan x="10" y="1482">  │   └─┬ truncate-utf8-bytes@1.0.2 </tspan>
<tspan x="10" y="1498">  │     └── utf8-byte-length@1.0.4 </tspan>
<tspan x="10" y="1514">  ├─┬ chalk@1.1.3 </tspan>
<tspan x="10" y="1530">  │ ├── ansi-styles@2.2.1 </tspan>
<tspan x="10" y="1546">  │ ├── escape-string-regexp@1.0.5 </tspan>
<tspan x="10" y="1562">  │ ├─┬ has-ansi@2.0.0 </tspan>
<tspan x="10" y="1578">  │ │ └── ansi-regex@2.1.1 </tspan>
<tspan x="10" y="1594">  │ ├── strip-ansi@3.0.1 </tspan>
<tspan x="10" y="1610">  │ └── supports-color@2.0.0 </tspan>
<tspan x="10" y="1626">  ├── cldr-core@28.0.0 </tspan>
<tspan x="10" y="1642">  ├─┬ ember-assign-polyfill@2.0.1 </tspan>
<tspan x="10" y="1658">  │ └─┬ ember-cli-version-checker@1.2.0 </tspan>
<tspan x="10" y="1674">  │   └── semver@5.3.0 </tspan>
<tspan x="10" y="1690">  ├─┬ ember-cli-babel@5.2.4 </tspan>
<tspan x="10" y="1706">  │ ├─┬ broccoli-babel-transpiler@5.6.2 </tspan>
<tspan x="10" y="1722">  │ │ ├─┬ babel-core@5.8.38 </tspan>
<tspan x="10" y="1738">  │ │ │ ├── babel-plugin-constant-folding@1.0.1 </tspan>
<tspan x="10" y="1754">  │ │ │ ├── babel-plugin-dead-code-elimination@1.0.2 </tspan>
<tspan x="10" y="1770">  │ │ │ ├── babel-plugin-eval@1.0.1 </tspan>
<tspan x="10" y="1786">  │ │ │ ├── babel-plugin-inline-environment-variables@1.0.1 </tspan>
<tspan x="10" y="1802">  │ │ │ ├── babel-plugin-jscript@1.0.4 </tspan>
<tspan x="10" y="1818">  │ │ │ ├── babel-plugin-member-expression-literals@1.0.1 </tspan>
<tspan x="10" y="1834">  │ │ │ ├── babel-plugin-property-literals@1.0.1 </tspan>
<tspan x="10" y="1850">  │ │ │ ├── babel-plugin-proto-to-assign@1.0.4 </tspan>
<tspan x="10" y="1866">  │ │ │ ├── babel-plugin-react-constant-elements@1.0.3 </tspan>
<tspan x="10" y="1882">  │ │ │ ├── babel-plugin-react-display-name@1.0.3 </tspan>
<tspan x="10" y="1898">  │ │ │ ├── babel-plugin-remove-console@1.0.1 </tspan>
<tspan x="10" y="1914">  │ │ │ ├── babel-plugin-remove-debugger@1.0.1 </tspan>
<tspan x="10" y="1930">  │ │ │ ├── babel-plugin-runtime@1.0.7 </tspan>
<tspan x="10" y="1946">  │ │ │ ├─┬ babel-plugin-undeclared-variables-check@1.0.2 </tspan>
<tspan x="10" y="1962">  │ │ │ │ └── leven@1.0.2 </tspan>
<tspan x="10" y="1978">  │ │ │ ├── babel-plugin-undefined-to-void@1.1.6 </tspan>
<tspan x="10" y="1994">  │ │ │ ├── babylon@5.8.38 </tspan>
<tspan x="10" y="2010">  │ │ │ ├── bluebird@2.11.0 </tspan>
<tspan x="10" y="2026">  │ │ │ ├── convert-source-map@1.5.0 </tspan>
<tspan x="10" y="2042">  │ │ │ ├── core-js@1.2.7 </tspan>
<tspan x="10" y="2058">  │ │ │ ├─┬ detect-indent@3.0.1 </tspan>
<tspan x="10" y="2074">  │ │ │ │ ├── get-stdin@4.0.1 </tspan>
<tspan x="10" y="2090">  │ │ │ │ └── minimist@1.2.0 </tspan>
<tspan x="10" y="2106">  │ │ │ ├── esutils@2.0.2 </tspan>
<tspan x="10" y="2122">  │ │ │ ├── fs-readdir-recursive@0.1.2 </tspan>
<tspan x="10" y="2138">  │ │ │ ├── globals@6.4.1 </tspan>
<tspan x="10" y="2154">  │ │ │ ├─┬ home-or-tmp@1.0.0 </tspan>
<tspan x="10" y="2170">  │ │ │ │ └── user-home@1.1.1 </tspan>
<tspan x="10" y="2186">  │ │ │ ├─┬ is-integer@1.0.6 </tspan>
<tspan x="10" y="2202">  │ │ │ │ └─┬ is-finite@1.0.2 </tspan>
<tspan x="10" y="2218">  │ │ │ │   └── number-is-nan@1.0.1 </tspan>
<tspan x="10" y="2234">  │ │ │ ├── js-tokens@1.0.1 </tspan>
<tspan x="10" y="2250">  │ │ │ ├── json5@0.4.0 </tspan>
<tspan x="10" y="2266">  │ │ │ ├── lodash@3.10.1 </tspan>
<tspan x="10" y="2282">  │ │ │ ├── minimatch@2.0.10 </tspan>
<tspan x="10" y="2298">  │ │ │ ├── output-file-sync@1.1.2 </tspan>
<tspan x="10" y="2314">  │ │ │ ├── path-exists@1.0.0 </tspan>
<tspan x="10" y="2330">  │ │ │ ├── private@0.1.7 </tspan>
<tspan x="10" y="2346">  │ │ │ ├─┬ regenerator@0.8.40 </tspan>
<tspan x="10" y="2362">  │ │ │ │ ├─┬ commoner@0.10.8 </tspan>
<tspan x="10" y="2378">  │ │ │ │ │ ├─┬ commander@2.9.0 </tspan>
<tspan x="10" y="2394">  │ │ │ │ │ │ └── graceful-readlink@1.0.1 </tspan>
<tspan x="10" y="2410">  │ │ │ │ │ ├─┬ detective@4.5.0 </tspan>
<tspan x="10" y="2426">  │ │ │ │ │ │ ├── acorn@4.0.11 </tspan>
<tspan x="10" y="2442">  │ │ │ │ │ │ └── defined@1.0.0 </tspan>
<tspan x="10" y="2458">  │ │ │ │ │ ├── iconv-lite@0.4.16 </tspan>
<tspan x="10" y="2474">  │ │ │ │ │ ├── q@1.5.0 </tspan>
<tspan x="10" y="2490">  │ │ │ │ │ └─┬ recast@0.11.23 </tspan>
<tspan x="10" y="2506">  │ │ │ │ │   ├── ast-types@0.9.6 </tspan>
<tspan x="10" y="2522">  │ │ │ │ │   └── esprima@3.1.3 </tspan>
<tspan x="10" y="2538">  │ │ │ │ ├─┬ defs@1.1.1 </tspan>
<tspan x="10" y="2554">  │ │ │ │ │ ├─┬ alter@0.2.0 </tspan>
<tspan x="10" y="2570">  │ │ │ │ │ │ └── stable@0.1.6 </tspan>
<tspan x="10" y="2586">  │ │ │ │ │ ├── ast-traverse@0.1.1 </tspan>
<tspan x="10" y="2602">  │ │ │ │ │ ├── breakable@1.0.0 </tspan>
<tspan x="10" y="2618">  │ │ │ │ │ ├── simple-fmt@0.1.0 </tspan>
<tspan x="10" y="2634">  │ │ │ │ │ ├── simple-is@0.2.0 </tspan>
<tspan x="10" y="2650">  │ │ │ │ │ ├── stringmap@0.2.2 </tspan>
<tspan x="10" y="2666">  │ │ │ │ │ ├── stringset@0.2.1 </tspan>
<tspan x="10" y="2682">  │ │ │ │ │ ├── tryor@0.1.2 </tspan>
<tspan x="10" y="2698">  │ │ │ │ │ └─┬ yargs@3.27.0 </tspan>
<tspan x="10" y="2714">  │ │ │ │ │   ├─┬ os-locale@1.4.0 </tspan>
<tspan x="10" y="2730">  │ │ │ │ │   │ └─┬ lcid@1.0.0 </tspan>
<tspan x="10" y="2746">  │ │ │ │ │   │   └── invert-kv@1.0.0 </tspan>
<tspan x="10" y="2762">  │ │ │ │ │   ├── window-size@0.1.4 </tspan>
<tspan x="10" y="2778">  │ │ │ │ │   └── y18n@3.2.1 </tspan>
<tspan x="10" y="2794">  │ │ │ │ ├── esprima-fb@15001.1001.0-dev-harmony-fb </tspan>
<tspan x="10" y="2810">  │ │ │ │ ├─┬ recast@0.10.33 </tspan>
<tspan x="10" y="2826">  │ │ │ │ │ └── ast-types@0.8.12 </tspan>
<tspan x="10" y="2842">  │ │ │ │ └── through@2.3.8 </tspan>
<tspan x="10" y="2858">  │ │ │ ├─┬ regexpu@1.3.0 </tspan>
<tspan x="10" y="2874">  │ │ │ │ ├── esprima@2.7.3 </tspan>
<tspan x="10" y="2890">  │ │ │ │ ├── regenerate@1.3.2 </tspan>
<tspan x="10" y="2906">  │ │ │ │ ├── regjsgen@0.2.0 </tspan>
<tspan x="10" y="2922">  │ │ │ │ └─┬ regjsparser@0.1.5 </tspan>
<tspan x="10" y="2938">  │ │ │ │   └── jsesc@0.5.0 </tspan>
<tspan x="10" y="2954">  │ │ │ ├── repeating@1.1.3 </tspan>
<tspan x="10" y="2970">  │ │ │ ├── shebang-regex@1.0.0 </tspan>
<tspan x="10" y="2986">  │ │ │ ├── slash@1.0.0 </tspan>
<tspan x="10" y="3002">  │ │ │ ├─┬ source-map-support@0.2.10 </tspan>
<tspan x="10" y="3018">  │ │ │ │ └─┬ source-map@0.1.32 </tspan>
<tspan x="10" y="3034">  │ │ │ │   └── amdefine@1.0.1 </tspan>
<tspan x="10" y="3050">  │ │ │ ├── to-fast-properties@1.0.2 </tspan>
<tspan x="10" y="3066">  │ │ │ ├── trim-right@1.0.1 </tspan>
<tspan x="10" y="3082">  │ │ │ └── try-resolve@1.0.1 </tspan>
<tspan x="10" y="3098">  │ │ ├── broccoli-merge-trees@1.2.4 </tspan>
<tspan x="10" y="3114">  │ │ └── clone@0.2.0 </tspan>
<tspan x="10" y="3130">  │ └── clone@2.1.1 </tspan>
<tspan x="10" y="3146">  ├── ember-cli-import-polyfill@0.2.0 </tspan>
<tspan x="10" y="3162">  ├─┬ ember-getowner-polyfill@1.2.2 </tspan>
<tspan x="10" y="3178">  │ └── ember-factory-for-polyfill@1.1.1 </tspan>
<tspan x="10" y="3194">  ├─┬ ember-intl-format-cache@2.4.1 </tspan>
<tspan x="10" y="3210">  │ ├── broccoli-merge-trees@1.2.4 </tspan>
<tspan x="10" y="3226">  │ └── intl-format-cache@2.0.5 </tspan>
<tspan x="10" y="3242">  ├─┬ ember-intl-messageformat@2.4.1 </tspan>
<tspan x="10" y="3258">  │ ├── broccoli-merge-trees@1.2.4 </tspan>
<tspan x="10" y="3274">  │ ├─┬ ember-intl-messageformat-parser@1.3.0 </tspan>
<tspan x="10" y="3290">  │ │ └── broccoli-merge-trees@1.2.4 </tspan>
<tspan x="10" y="3306">  │ └─┬ intl-messageformat@1.3.0 </tspan>
<tspan x="10" y="3322">  │   └── intl-messageformat-parser@1.2.0 </tspan>
<tspan x="10" y="3338">  ├─┬ ember-intl-relativeformat@2.4.1 </tspan>
<tspan x="10" y="3354">  │ ├── broccoli-merge-trees@1.2.4 </tspan>
<tspan x="10" y="3370">  │ └── intl-relativeformat@1.3.0 </tspan>
<tspan x="10" y="3386">  ├── exists-sync@0.0.4 </tspan>
<tspan x="10" y="3402">  ├── extend@3.0.0 </tspan>
<tspan x="10" y="3418">  ├── has-unicode@2.0.1 </tspan>
<tspan x="10" y="3434">  ├── intl@1.0.1 </tspan>
<tspan x="10" y="3450">  ├── intl-messageformat-parser@1.3.0 </tspan>
<tspan x="10" y="3466">  ├─┬ js-yaml@3.8.3 </tspan>
<tspan x="10" y="3482">  │ ├─┬ argparse@1.0.9 </tspan>
<tspan x="10" y="3498">  │ │ └── sprintf-js@1.0.3 </tspan>
<tspan x="10" y="3514">  │ └── esprima@3.1.3 </tspan>
<tspan x="10" y="3530">  ├─┬ json-stable-stringify@1.0.1 </tspan>
<tspan x="10" y="3546">  │ └── jsonify@0.0.0 </tspan>
<tspan x="10" y="3562">  ├── locale-emoji@0.2.0 </tspan>
<tspan x="10" y="3578">  ├─┬ mkdirp@0.5.1 </tspan>
<tspan x="10" y="3594">  │ └── minimist@0.0.8 </tspan>
<tspan x="10" y="3610">  ├── silent-error@1.0.1 </tspan>
<tspan x="10" y="3626">  └─┬ walk-sync@0.3.1 </tspan>
<tspan x="10" y="3642">    └── matcher-collection@1.0.4</tspan>
</text>
</svg>
